<svg id="visual" viewBox="0 0 960 540" width="960" height="540" xmlns="http://www.w3.org/2000/svg" xmlns:xlink="http://www.w3.org/1999/xlink" version="1.1"><g><g transform="translate(810 157)"><path d="M13.1 -16.3C16.9 -12.4 19.9 -8.2 20.6 -3.7C21.3 0.8 19.8 5.7 17 9C14.1 12.2 9.9 13.8 5.3 16.1C0.8 18.4 -4.1 21.5 -7.8 20.5C-11.5 19.5 -14 14.5 -15 10C-15.9 5.5 -15.1 1.5 -14.1 -2.1C-13 -5.7 -11.6 -8.9 -9.2 -13C-6.8 -17.1 -3.4 -22.1 0.6 -22.9C4.7 -23.7 9.3 -20.2 13.1 -16.3Z" stroke="#ffc591" fill="none" stroke-width="7"></path></g><g transform="translate(711 367)"><path d="M2.3 -2.8C3.2 -2 4.3 -1.5 4.4 -0.8C4.5 -0.1 3.6 0.7 2.9 1.5C2.2 2.3 1.8 3 1.1 3.5C0.3 4 -0.7 4.3 -1.3 3.9C-2 3.6 -2.4 2.6 -2.7 1.7C-3.1 0.8 -3.4 0.1 -3.4 -0.8C-3.5 -1.7 -3.3 -2.7 -2.7 -3.5C-2 -4.4 -1 -5.1 -0.2 -4.9C0.7 -4.7 1.4 -3.6 2.3 -2.8Z" stroke="#ffc591" fill="none" stroke-width="7"></path></g><g transform="translate(686 228)"><path d="M3.1 -3.7C3.8 -3.1 4.1 -1.9 4.2 -0.8C4.3 0.3 4.3 1.4 3.8 2.2C3.3 2.9 2.4 3.4 1.5 3.5C0.6 3.6 -0.2 3.2 -1.2 3C-2.1 2.8 -3.2 2.6 -4 2C-4.8 1.3 -5.2 0.2 -5.1 -1C-5.1 -2.2 -4.4 -3.3 -3.5 -3.9C-2.5 -4.6 -1.3 -4.6 0 -4.5C1.2 -4.5 2.3 -4.3 3.1 -3.7Z" stroke="#ffc591" fill="none" stroke-width="7"></path></g><g transform="translate(139 277)"><path d="M8.5 -10.6C10.6 -8.3 11.8 -5.3 12 -2.3C12.3 0.6 11.7 3.5 10 5.3C8.4 7.2 5.8 8 3.5 8.5C1.1 8.9 -1.1 8.8 -3.8 8.6C-6.6 8.5 -10.1 8.1 -12.3 6.2C-14.5 4.2 -15.5 0.7 -15 -2.7C-14.5 -6.1 -12.5 -9.3 -9.7 -11.4C-7 -13.5 -3.5 -14.6 -0.2 -14.4C3.2 -14.3 6.3 -12.8 8.5 -10.6Z" stroke="#ffc591" fill="none" stroke-width="7"></path></g><g transform="translate(430 489)"><path d="M5.4 -6.4C6.9 -5.2 7.9 -3.4 8.2 -1.5C8.5 0.5 8.2 2.5 7.3 4.4C6.4 6.4 5 8.2 3.1 9.2C1.2 10.1 -1.3 10.2 -3.6 9.5C-5.9 8.8 -8 7.3 -9.3 5.3C-10.5 3.2 -10.9 0.6 -10 -1.3C-9.1 -3.2 -6.8 -4.3 -4.9 -5.5C-3.1 -6.6 -1.5 -7.8 0.2 -8C2 -8.3 3.9 -7.7 5.4 -6.4Z" stroke="#ffc591" fill="none" stroke-width="7"></path></g><g transform="translate(468 384)"><path d="M7.9 -9.2C10.9 -7 14.3 -5 15.7 -2C17.2 1 16.6 5.1 14.6 8.2C12.5 11.2 9 13.2 5.7 13.6C2.3 14 -0.9 12.7 -3.5 11.2C-6.1 9.6 -8 7.6 -9 5.4C-10.1 3.2 -10.4 0.6 -10 -1.7C-9.5 -4.1 -8.3 -6.3 -6.5 -8.8C-4.7 -11.3 -2.4 -14.1 0.1 -14.1C2.5 -14.2 5 -11.5 7.9 -9.2Z" stroke="#ffc591" fill="none" stroke-width="7"></path></g><g transform="translate(548 310)"><path d="M10 -12.1C11.8 -10.5 11.2 -6.2 10.7 -2.8C10.2 0.6 9.9 3.1 8.9 5.4C7.9 7.7 6.1 9.8 3.5 11.7C0.9 13.5 -2.6 15.1 -5.7 14.5C-8.8 13.9 -11.6 11.1 -13.8 7.7C-16 4.4 -17.8 0.5 -17.2 -3.1C-16.7 -6.6 -13.8 -9.8 -10.6 -11.2C-7.3 -12.6 -3.6 -12.2 0.2 -12.5C4.1 -12.8 8.2 -13.8 10 -12.1Z" stroke="#ffc591" fill="none" stroke-width="7"></path></g><g transform="translate(645 85)"><path d="M12.2 -15C15 -12.1 16 -7.6 16.9 -2.9C17.8 1.7 18.6 6.4 16.8 10C15.1 13.6 10.9 16 6.6 17.2C2.2 18.3 -2.2 18.3 -6.5 17.1C-10.8 15.8 -14.9 13.4 -16.5 9.9C-18.2 6.3 -17.3 1.7 -16 -2.3C-14.6 -6.2 -12.7 -9.6 -10 -12.4C-7.2 -15.2 -3.6 -17.5 0.5 -18.2C4.7 -18.8 9.4 -17.8 12.2 -15Z" stroke="#ffc591" fill="none" stroke-width="7"></path></g><g transform="translate(327 205)"><path d="M1.5 -1.9C1.9 -1.5 2 -0.9 2.2 -0.3C2.4 0.3 2.7 1 2.5 1.5C2.2 2 1.6 2.3 0.9 2.5C0.2 2.8 -0.5 3 -1 2.8C-1.5 2.6 -1.9 1.9 -2.2 1.3C-2.5 0.7 -2.6 0.1 -2.5 -0.4C-2.4 -1 -2 -1.4 -1.5 -1.8C-1.1 -2.2 -0.5 -2.5 0 -2.5C0.6 -2.5 1.1 -2.3 1.5 -1.9Z" stroke="#ffc591" fill="none" stroke-width="7"></path></g><g transform="translate(489 80)"><path d="M3.8 -4.4C5 -3.6 6 -2.4 6 -1.2C6.1 0.1 5.3 1.3 4.6 2.7C3.8 4 3.1 5.4 1.8 6.5C0.5 7.6 -1.4 8.5 -3.1 8.1C-4.9 7.7 -6.3 6.1 -7.2 4.3C-8.1 2.5 -8.4 0.5 -7.8 -1C-7.1 -2.5 -5.5 -3.5 -4 -4.3C-2.5 -5 -1.3 -5.5 0 -5.6C1.3 -5.6 2.7 -5.2 3.8 -4.4Z" stroke="#ffc591" fill="none" stroke-width="7"></path></g><g transform="translate(610 432)"><path d="M9.1 -11.9C11.4 -9 12.5 -5.7 13.7 -2C14.8 1.7 16 5.8 14.7 8.8C13.3 11.7 9.5 13.6 5.6 14.7C1.7 15.9 -2.2 16.4 -5.4 15.1C-8.6 13.9 -11 10.8 -12.9 7.5C-14.8 4.1 -16.1 0.5 -15.4 -2.6C-14.7 -5.7 -12 -8.3 -9.1 -11.1C-6.1 -13.9 -3.1 -16.8 0.2 -17C3.4 -17.2 6.9 -14.7 9.1 -11.9Z" stroke="#ffc591" fill="none" stroke-width="7"></path></g><g transform="translate(452 240)"><path d="M8.2 -11.1C10.1 -8.3 10.5 -5.1 10.9 -2C11.3 1 11.6 4 10.7 6.7C9.7 9.4 7.5 11.9 4.7 12.7C2 13.6 -1.2 12.8 -3.5 11.2C-5.7 9.7 -7.1 7.3 -9 4.8C-10.9 2.3 -13.4 -0.2 -13.9 -3.4C-14.4 -6.5 -13 -10.2 -10.4 -12.8C-7.8 -15.5 -3.9 -17 -0.3 -16.6C3.2 -16.2 6.4 -13.8 8.2 -11.1Z" stroke="#ffc591" fill="none" stroke-width="7"></path></g><g transform="translate(784 315)"><path d="M7.2 -8.4C9.4 -6.6 11.5 -4.5 11.9 -2.1C12.2 0.2 10.8 2.8 9.1 4.7C7.3 6.5 5.2 7.5 2.9 8.6C0.6 9.7 -1.9 10.8 -4.1 10.4C-6.4 10 -8.5 8.1 -9.9 5.7C-11.3 3.3 -12.1 0.5 -11.9 -2.3C-11.6 -5.2 -10.5 -8.1 -8.3 -9.9C-6.2 -11.6 -3.1 -12.2 -0.3 -11.8C2.4 -11.4 4.9 -10.1 7.2 -8.4Z" stroke="#ffc591" fill="none" stroke-width="7"></path></g><g transform="translate(359 283)"><path d="M10.3 -12.3C13.4 -9.7 16.1 -6.5 16.8 -2.9C17.5 0.7 16.3 4.7 13.8 7C11.3 9.3 7.6 10 4.2 11C0.8 12 -2.3 13.5 -5.9 13.4C-9.4 13.3 -13.5 11.7 -15.3 8.7C-17.2 5.7 -16.9 1.4 -15.8 -2.5C-14.8 -6.4 -13 -9.8 -10.2 -12.5C-7.4 -15.1 -3.7 -17 -0.1 -16.9C3.6 -16.8 7.2 -14.8 10.3 -12.3Z" stroke="#ffc591" fill="none" stroke-width="7"></path></g><g transform="translate(573 153)"><path d="M3.3 -4.2C4 -3.4 4.1 -2.1 4.2 -0.8C4.3 0.4 4.4 1.5 4 2.4C3.6 3.4 2.7 4.2 1.7 4.5C0.7 4.7 -0.4 4.5 -1.3 4C-2.1 3.4 -2.6 2.6 -3.1 1.8C-3.6 0.9 -4.1 0.1 -4.2 -1C-4.3 -2 -4 -3.2 -3.2 -4C-2.4 -4.8 -1.2 -5.3 0.1 -5.4C1.3 -5.4 2.6 -5.1 3.3 -4.2Z" stroke="#ffc591" fill="none" stroke-width="7"></path></g><g transform="translate(59 313)"><path d="M8 -8.5C10.9 -7.1 14.2 -5.1 14.6 -2.6C15 -0.1 12.5 2.8 10.6 6.1C8.7 9.4 7.4 13.1 4.9 14.5C2.3 15.9 -1.5 15.1 -5.2 13.9C-8.9 12.7 -12.6 11 -14.3 8.2C-16.1 5.3 -15.9 1.3 -14.7 -2C-13.4 -5.3 -11 -7.8 -8.4 -9.2C-5.7 -10.6 -2.9 -11 -0.2 -10.8C2.5 -10.6 5.1 -9.9 8 -8.5Z" stroke="#ffc591" fill="none" stroke-width="7"></path></g><g transform="translate(246 454)"><path d="M8.1 -8.9C10.8 -7.5 13.3 -5.1 13.4 -2.6C13.5 -0.2 11.1 2.5 9.3 5.2C7.5 7.9 6.2 10.8 3.9 12.3C1.6 13.8 -1.8 13.9 -4.5 12.8C-7.3 11.6 -9.4 9.1 -11 6.4C-12.5 3.6 -13.5 0.5 -13.6 -3C-13.7 -6.5 -12.9 -10.4 -10.5 -11.9C-8 -13.3 -4 -12.3 -0.6 -11.5C2.7 -10.8 5.5 -10.3 8.1 -8.9Z" stroke="#ffc591" fill="none" stroke-width="7"></path></g><g transform="translate(320 490)"><path d="M3.2 -4.3C4 -3.1 4.5 -2 5.2 -0.5C5.9 0.9 6.8 2.7 6.6 4.4C6.3 6.1 4.8 7.7 3 8.4C1.2 9.2 -1 9 -2.6 8C-4.2 7.1 -5.3 5.4 -6.2 3.6C-7.2 1.9 -8.1 0.2 -7.9 -1.6C-7.8 -3.3 -6.7 -5 -5.2 -6.1C-3.7 -7.1 -1.9 -7.6 -0.3 -7.2C1.2 -6.8 2.3 -5.5 3.2 -4.3Z" stroke="#ffc591" fill="none" stroke-width="7"></path></g><g transform="translate(372 118)"><path d="M7.2 -7.8C9.3 -6.8 10.9 -4.5 11.2 -2.1C11.4 0.3 10.3 2.8 9 5.5C7.8 8.2 6.4 11.1 4.5 11.4C2.5 11.7 0 9.4 -2.8 8.2C-5.6 7 -8.6 6.8 -9.6 5.4C-10.6 4 -9.7 1.2 -8.8 -1.2C-8 -3.6 -7.2 -5.7 -5.8 -6.8C-4.4 -7.9 -2.2 -8.1 0.2 -8.3C2.5 -8.5 5.1 -8.8 7.2 -7.8Z" stroke="#ffc591" fill="none" stroke-width="7"></path></g><g transform="translate(225 400)"><path d="M7.1 -9.1C8.9 -7 9.7 -4.4 10.9 -1.4C12.2 1.7 13.8 5.3 12.8 7.7C11.8 10.1 8.2 11.3 5 11.5C1.8 11.7 -1 11 -3.1 9.7C-5.3 8.4 -6.8 6.6 -8.7 4.5C-10.7 2.3 -13 -0.2 -13.5 -3.2C-14 -6.3 -12.6 -9.9 -10.1 -11.8C-7.5 -13.8 -3.8 -14 -0.5 -13.4C2.7 -12.7 5.3 -11.1 7.1 -9.1Z" stroke="#ffc591" fill="none" stroke-width="7"></path></g><g transform="translate(655 387)"><path d="M6.9 -8.6C8.4 -7 8.6 -4.3 8.2 -2.1C7.9 0.1 7 1.8 6.2 4C5.5 6.2 4.8 8.9 3.1 10.3C1.4 11.6 -1.4 11.6 -3.5 10.4C-5.6 9.3 -7.1 7.1 -8.1 4.9C-9.2 2.7 -9.8 0.4 -9.5 -1.7C-9.2 -3.8 -7.8 -5.8 -6.1 -7.3C-4.3 -8.8 -2.2 -9.9 0.3 -10.2C2.7 -10.5 5.5 -10.1 6.9 -8.6Z" stroke="#ffc591" fill="none" stroke-width="7"></path></g><g transform="translate(856 367)"><path d="M13.4 -15.7C16.1 -13.8 15.9 -8.3 15.9 -3.6C15.8 1.2 15.7 5.1 14.1 8.5C12.5 11.8 9.4 14.6 6 15.4C2.5 16.2 -1.3 15.2 -4.3 13.4C-7.2 11.6 -9.4 9.1 -11 6.3C-12.7 3.5 -13.8 0.4 -13.4 -2.5C-13.1 -5.4 -11.1 -8.2 -8.6 -10.1C-6.1 -12 -3.1 -13.2 1.2 -14.5C5.4 -15.9 10.8 -17.6 13.4 -15.7Z" stroke="#ffc591" fill="none" stroke-width="7"></path></g><g transform="translate(192 503)"><path d="M11.6 -13.8C14.9 -11.1 17.2 -7.3 18 -3.1C18.9 1.1 18.2 5.6 15.6 8.1C13.1 10.5 8.6 10.9 4.9 11.3C1.2 11.6 -1.6 12 -3.9 11C-6.1 10.1 -7.8 7.7 -10.4 5.1C-13.1 2.4 -16.7 -0.6 -16.7 -3.4C-16.7 -6.2 -13.1 -8.8 -9.7 -11.4C-6.3 -14.1 -3.2 -16.8 0.5 -17.4C4.2 -18 8.4 -16.5 11.6 -13.8Z" stroke="#ffc591" fill="none" stroke-width="7"></path></g><g transform="translate(829 470)"><path d="M9.5 -10.1C12.4 -9 14.7 -6 15.4 -2.6C16.1 0.7 15.1 4.4 13 7C10.9 9.5 7.7 10.8 4.8 10.9C1.9 11 -0.6 9.7 -3.1 8.7C-5.7 7.8 -8.3 7 -10.2 5.2C-12 3.4 -13 0.5 -12.6 -2.2C-12.1 -4.9 -10.2 -7.4 -7.9 -8.6C-5.5 -9.8 -2.8 -9.8 0.3 -10.1C3.3 -10.5 6.7 -11.2 9.5 -10.1Z" stroke="#ffc591" fill="none" stroke-width="7"></path></g><g transform="translate(36 111)"><path d="M9.4 -9.6C13.3 -8 18.4 -6 19.6 -2.9C20.7 0.2 18.1 4.6 15.6 9.1C13.1 13.7 10.8 18.4 7.3 19.3C3.8 20.3 -0.7 17.4 -4.1 14.7C-7.5 12 -9.7 9.5 -11.8 6.5C-13.9 3.5 -15.9 0.2 -16.1 -3.6C-16.4 -7.4 -14.9 -11.7 -12 -13.5C-9 -15.3 -4.5 -14.6 -0.9 -13.5C2.8 -12.5 5.5 -11.2 9.4 -9.6Z" stroke="#ffc591" fill="none" stroke-width="7"></path></g><g transform="translate(544 449)"><path d="M8 -9.6C10.4 -7.5 12.5 -5 12.7 -2.4C12.9 0.2 11.4 2.9 10 6.2C8.6 9.4 7.4 13.2 5.1 14.1C2.8 15 -0.6 13.1 -3.7 11.4C-6.8 9.8 -9.5 8.4 -11.8 6.1C-14 3.7 -15.8 0.3 -15 -2.4C-14.3 -5.1 -11 -7.1 -8 -9.1C-5.1 -11.1 -2.6 -13.1 0.1 -13.2C2.8 -13.4 5.6 -11.7 8 -9.6Z" stroke="#ffc591" fill="none" stroke-width="7"></path></g><g transform="translate(719 32)"><path d="M3.8 -4.5C4.6 -3.8 4.8 -2.4 4.9 -1C5.1 0.4 5.1 1.7 4.7 2.9C4.2 4 3.2 5.1 2 5.6C0.7 6.1 -0.8 6.1 -1.7 5.5C-2.7 4.8 -3.1 3.4 -3.5 2.2C-3.9 1.1 -4.4 0.1 -4.5 -1.1C-4.6 -2.2 -4.4 -3.6 -3.6 -4.3C-2.8 -5 -1.4 -5.1 0 -5.1C1.5 -5.2 3 -5.2 3.8 -4.5Z" stroke="#ffc591" fill="none" stroke-width="7"></path></g><g transform="translate(145 129)"><path d="M8.5 -9.3C11.4 -7.7 14.4 -5.4 14.9 -2.6C15.4 0.1 13.4 3.3 11.4 6.5C9.5 9.7 7.7 12.9 4.8 14.5C2 16.1 -1.9 16.1 -4.6 14.3C-7.2 12.6 -8.5 9.2 -9.4 6.2C-10.3 3.2 -10.6 0.6 -11.2 -2.9C-11.7 -6.5 -12.3 -11 -10.5 -12.8C-8.7 -14.6 -4.3 -13.6 -0.8 -12.7C2.8 -11.8 5.6 -10.9 8.5 -9.3Z" stroke="#ffc591" fill="none" stroke-width="7"></path></g><g transform="translate(879 200)"><path d="M2 -2.4C2.4 -2 2.5 -1.2 2.6 -0.5C2.7 0.2 2.7 0.9 2.5 1.4C2.2 1.9 1.5 2.1 0.8 2.5C0.1 2.8 -0.6 3.2 -1.1 3C-1.5 2.8 -1.7 1.9 -1.9 1.2C-2.2 0.5 -2.5 0 -2.6 -0.7C-2.8 -1.4 -2.7 -2.2 -2.2 -2.6C-1.7 -3 -0.9 -2.9 0 -2.9C0.8 -2.8 1.6 -2.8 2 -2.4Z" stroke="#ffc591" fill="none" stroke-width="7"></path></g><g transform="translate(129 421)"><path d="M9.5 -10.4C13 -8.4 17.1 -6.1 18.2 -2.8C19.3 0.6 17.5 4.8 15.2 8.6C12.8 12.3 9.8 15.5 5.8 17.7C1.8 19.9 -3.2 21.1 -6.7 19.4C-10.3 17.7 -12.4 13.1 -14.2 8.8C-15.9 4.5 -17.2 0.6 -17.3 -3.8C-17.4 -8.2 -16.3 -13.2 -13.3 -15.3C-10.2 -17.4 -5.1 -16.6 -1 -15.4C3 -14.1 6 -12.4 9.5 -10.4Z" stroke="#ffc591" fill="none" stroke-width="7"></path></g><g transform="translate(803 233)"><path d="M7.1 -8.9C9.2 -6.7 10.7 -4.5 11.1 -2C11.5 0.4 10.7 3.1 9.3 5.2C7.9 7.4 5.9 9.1 3.4 10.4C1 11.7 -2 12.6 -4.3 11.8C-6.5 10.9 -8.1 8.3 -9.6 5.6C-11.1 2.9 -12.5 0.2 -12 -2C-11.5 -4.3 -9 -6.1 -6.7 -8.1C-4.4 -10.2 -2.2 -12.6 0.2 -12.8C2.5 -13 5 -11 7.1 -8.9Z" stroke="#ffc591" fill="none" stroke-width="7"></path></g><g transform="translate(656 169)"><path d="M3.8 -4.1C5 -3.4 6.3 -2.4 6.3 -1.3C6.4 -0.1 5.2 1.1 4.3 2.3C3.4 3.5 2.8 4.7 1.8 5.3C0.8 5.8 -0.6 5.7 -2.2 5.4C-3.7 5.1 -5.4 4.6 -6.3 3.4C-7.3 2.3 -7.4 0.5 -6.8 -0.9C-6.2 -2.3 -4.8 -3.2 -3.5 -3.9C-2.3 -4.6 -1.1 -5.1 0.1 -5.1C1.3 -5.2 2.5 -4.9 3.8 -4.1Z" stroke="#ffc591" fill="none" stroke-width="7"></path></g><g transform="translate(96 368)"><path d="M12.5 -14.4C15.1 -12.8 15.2 -7.7 15.6 -3.1C16 1.5 16.6 5.7 15.3 9.6C14 13.5 10.8 17.1 7.1 17.6C3.5 18 -0.5 15.2 -3.7 12.9C-6.8 10.5 -9.1 8.5 -10.4 6.1C-11.6 3.7 -11.8 0.8 -12.1 -3C-12.5 -6.7 -12.9 -11.3 -10.9 -13C-8.9 -14.7 -4.5 -13.4 0.3 -13.7C5 -14 10 -15.9 12.5 -14.4Z" stroke="#ffc591" fill="none" stroke-width="7"></path></g><g transform="translate(323 85)"><path d="M9 -11.2C12.1 -8.1 15.5 -5.7 15.9 -2.9C16.3 -0.1 13.7 3.2 11.8 7.2C9.9 11.1 8.7 15.8 5.7 17.9C2.7 20 -2.1 19.5 -5.8 17.5C-9.4 15.4 -11.9 11.9 -13.9 8.1C-16 4.4 -17.6 0.5 -16.8 -2.7C-15.9 -6 -12.6 -8.6 -9.4 -11.6C-6.2 -14.6 -3.1 -18.1 -0.1 -18C2.9 -17.9 5.9 -14.2 9 -11.2Z" stroke="#ffc591" fill="none" stroke-width="7"></path></g><g transform="translate(361 440)"><path d="M5.7 -7.7C7.4 -5.4 8.7 -3.6 9.3 -1.5C9.8 0.6 9.6 3 8.5 5.1C7.5 7.1 5.7 8.9 3.4 9.9C1.2 10.9 -1.5 11.2 -3.5 10.2C-5.4 9.2 -6.7 6.9 -7.6 4.7C-8.6 2.5 -9.1 0.4 -8.9 -1.7C-8.7 -3.8 -7.7 -5.9 -6.1 -8.3C-4.5 -10.6 -2.2 -13.2 -0.1 -13C2 -12.9 4 -10 5.7 -7.7Z" stroke="#ffc591" fill="none" stroke-width="7"></path></g><g transform="translate(320 392)"><path d="M3 -3.6C3.5 -3.1 3.5 -1.8 3.4 -0.8C3.2 0.2 3.1 0.9 2.7 1.6C2.4 2.3 1.8 2.9 1.1 3.3C0.3 3.7 -0.6 3.9 -1.6 3.8C-2.7 3.7 -3.8 3.3 -4.4 2.5C-5 1.6 -4.9 0.4 -4.6 -0.6C-4.2 -1.7 -3.5 -2.5 -2.7 -3C-1.8 -3.5 -0.9 -3.8 0.1 -4C1.2 -4.1 2.4 -4.2 3 -3.6Z" stroke="#ffc591" fill="none" stroke-width="7"></path></g><g transform="translate(908 76)"><path d="M9.1 -10.8C11.6 -8.7 13.3 -5.7 13.5 -2.7C13.7 0.4 12.4 3.4 10.8 6.3C9.2 9.2 7.3 12.1 4.6 13.3C1.9 14.6 -1.5 14.2 -4.2 12.7C-6.8 11.2 -8.5 8.5 -10.6 5.7C-12.7 2.9 -15.2 -0.1 -15.1 -3.1C-15.1 -6 -12.5 -8.9 -9.5 -10.9C-6.6 -12.9 -3.3 -14 0 -14C3.3 -14 6.5 -12.8 9.1 -10.8Z" stroke="#ffc591" fill="none" stroke-width="7"></path></g><g transform="translate(614 225)"><path d="M8.4 -11.2C10.5 -8.4 11.3 -5.3 12.6 -1.7C13.9 1.9 15.7 6 14.6 8.9C13.5 11.8 9.5 13.6 5.8 14.2C2.1 14.8 -1.4 14.2 -5.4 13.3C-9.4 12.5 -13.9 11.6 -16.8 8.7C-19.7 5.8 -21 0.9 -19.7 -3C-18.5 -6.9 -14.7 -9.9 -10.9 -12.5C-7.2 -15.1 -3.6 -17.2 -0.2 -17C3.2 -16.7 6.4 -14.1 8.4 -11.2Z" stroke="#ffc591" fill="none" stroke-width="7"></path></g><g transform="translate(182 177)"><path d="M1.2 -1.6C1.6 -1.2 1.9 -0.8 2 -0.3C2.1 0.1 2 0.6 1.9 1.3C1.7 2 1.5 2.8 1.1 3.1C0.6 3.4 -0.2 3 -0.8 2.6C-1.3 2.2 -1.7 1.7 -2 1.1C-2.3 0.6 -2.5 0.1 -2.4 -0.5C-2.4 -1 -2 -1.5 -1.6 -1.9C-1.1 -2.3 -0.6 -2.6 -0.1 -2.6C0.4 -2.5 0.9 -2 1.2 -1.6Z" stroke="#ffc591" fill="none" stroke-width="7"></path></g><g transform="translate(566 369)"><path d="M9.9 -13C12 -10.1 12.1 -6.2 12.3 -2.6C12.4 1 12.6 4.2 11.4 6.7C10.1 9.3 7.4 11.1 4.5 12C1.6 12.9 -1.5 12.8 -5.2 12.3C-8.9 11.8 -13.2 11 -15.5 8.3C-17.8 5.6 -18.1 1.2 -17 -2.5C-15.8 -6.3 -13.1 -9.3 -10 -12C-6.9 -14.7 -3.4 -17.1 0.3 -17.4C4 -17.7 7.9 -15.9 9.9 -13Z" stroke="#ffc591" fill="none" stroke-width="7"></path></g></g></svg>